<svg width="16" height="16" viewBox="0 0 16 16" fill="none" xmlns="http://www.w3.org/2000/svg">
<path d="M13.7 2.45001C13.7 2.30001 13.65 2.20001 13.55 2.10001C13.45 2.00001 13.35 1.95001 13.2 1.95001C13.05 1.95001 12.95 2.00001 12.85 2.10001L11.5 3.45001C10.5 2.95001 9.35 2.65001 8 2.50001C5.5 2.75001 3.5 3.65001 2.1 5.25001C0.7 6.85001 0 7.75001 0 8.00001C0 8.25001 0.75 9.15001 2.1 10.75C2.45 11.15 2.8 11.5 3.25 11.8L1.9 13.2C1.8 13.3 1.75 13.4 1.75 13.55C1.75 13.7 1.8 13.8 1.9 13.9C2 14 2.1 14.05 2.25 14.05C2.4 14.05 2.5 14 2.6 13.9L13.6 2.80001C13.65 2.70001 13.7 2.60001 13.7 2.45001ZM3.6 10.7C2.4 9.60001 1.6 8.70001 1.2 8.00001C1.65 7.25001 2.45 6.35001 3.6 5.30001C4.75 4.25001 6.25 3.60001 8 3.50001C9 3.55001 9.95 3.80001 10.75 4.20001L9.9 5.05001C9.35 4.70001 8.75 4.50001 8 4.50001C7 4.50001 6.2 4.85001 5.5 5.50001C4.8 6.15001 4.5 7.00001 4.5 8.00001C4.5 8.75001 4.7 9.40001 5.05 9.95001L4 11.05C3.85 10.95 3.7 10.8 3.6 10.7ZM5.8 9.20001C5.6 8.85001 5.5 8.45001 5.5 8.00001C5.5 7.30001 5.75 6.70001 6.25 6.25001C6.75 5.80001 7.3 5.50001 8 5.50001C8.45 5.50001 8.85 5.60001 9.15 5.80001L5.8 9.20001Z" fill="#08080A" fill-opacity="0.96"/>
<path d="M13.9 5.25001C13.7 5.00001 13.45 4.80001 13.25 4.60001L12.5 5.35001C13.65 6.40001 14.45 7.30001 14.85 8.00001C14.4 8.75001 13.6 9.65001 12.45 10.7C11.3 11.75 9.74999 12.4 7.99999 12.5C7.19999 12.45 6.44999 12.3 5.79999 12.05L5.04999 12.8C5.94999 13.15 6.89999 13.4 7.99999 13.5C10.5 13.25 12.5 12.35 13.9 10.75C15.3 9.15001 16 8.25001 16 8.00001C16 7.75001 15.25 6.85001 13.9 5.25001Z" fill="#08080A" fill-opacity="0.96"/>
<path d="M7.99998 10.5C7.79998 10.5 7.59998 10.45 7.39998 10.4L6.59998 11.2C7.04998 11.4 7.49998 11.5 7.99998 11.5C8.99998 11.5 9.79998 11.15 10.5 10.5C11.15 9.85001 11.5 9.00001 11.5 8.00001C11.5 7.50001 11.4 7.00001 11.2 6.60001L10.4 7.40001C10.45 7.60001 10.5 7.80001 10.5 8.00001C10.5 8.70001 10.25 9.30001 9.74998 9.75001C9.24998 10.2 8.69998 10.5 7.99998 10.5Z" fill="#08080A" fill-opacity="0.96"/>
</svg>
